<svg xmlns="http://www.w3.org/2000/svg" viewBox="0 0 60 60"><defs><style>.cls-1{fill:none;}.cls-2{fill:#ffc670;}.cls-3{fill:#fff6e6;}.cls-4{fill:#ffebcc;}.cls-5{fill:#96ddff;}.cls-6{fill:#69baf9;}.cls-7{fill:#3d3d63;}</style></defs><title>Floder</title><g id="图层_2" data-name="图层 2"><g id="Graphics"><g id="Floder"><rect class="cls-1" width="60" height="60"/><path class="cls-2" d="M41.12,11.7A1.34,1.34,0,0,1,42.45,13V33.49h2.68l2-23a1.33,1.33,0,0,0-1.21-1.44L18.47,6.67A1.34,1.34,0,0,0,17,7.89l-.33,3.81Z"/><path class="cls-3" d="M18.34,39.54A1.5,1.5,0,0,1,19.85,38h9.08a3,3,0,0,0,1.88-.66l4.05-3.22a3,3,0,0,1,1.88-.66h5.71V13a1.34,1.34,0,0,0-1.33-1.34H13.55A1.34,1.34,0,0,0,12.22,13V50.43a1.33,1.33,0,0,0,1.33,1.33h4.79Z"/><path class="cls-4" d="M42.45,33.49V27.93a27.67,27.67,0,0,1-2.26,5.56Z"/><path class="cls-4" d="M18.34,44.38a30.15,30.15,0,0,1-6.12-.9v7a1.33,1.33,0,0,0,1.33,1.33h4.79Z"/><path class="cls-5" d="M34.86,34.15l-4.05,3.22a3,3,0,0,1-1.88.66H19.85a1.5,1.5,0,0,0-1.51,1.51V51.82a1.51,1.51,0,0,0,1.51,1.51H46.27a1.52,1.52,0,0,0,1.51-1.51V35a1.52,1.52,0,0,0-1.51-1.51H36.74A3,3,0,0,0,34.86,34.15Z"/><path class="cls-6" d="M33.06,49.27a56.94,56.94,0,0,1-14.72-1.84v4.39a1.51,1.51,0,0,0,1.51,1.51H46.27a1.52,1.52,0,0,0,1.51-1.51V47.43A56.94,56.94,0,0,1,33.06,49.27Z"/><path class="cls-7" d="M46.27,32.49h-.05l1.92-21.88A2.34,2.34,0,0,0,46,8.08L18.55,5.68A2.35,2.35,0,0,0,16,7.8l-.25,2.91H13.55A2.33,2.33,0,0,0,11.22,13V50.43a2.33,2.33,0,0,0,2.33,2.33h4a2.53,2.53,0,0,0,2.33,1.57H46.27a2.52,2.52,0,0,0,2.51-2.51V35A2.52,2.52,0,0,0,46.27,32.49ZM18,8a.33.33,0,0,1,.36-.3l27.46,2.4a.33.33,0,0,1,.3.36L44.21,32.49h-.76V13a2.33,2.33,0,0,0-2.33-2.33H17.78Zm-.68,31.57V50.76H13.55a.33.33,0,0,1-.33-.33V13a.33.33,0,0,1,.33-.33H41.12a.33.33,0,0,1,.33.33V32.49H36.74a4,4,0,0,0-2.5.88l-4.05,3.22a2,2,0,0,1-1.26.44H19.85A2.51,2.51,0,0,0,17.34,39.54ZM46.78,51.82a.51.51,0,0,1-.51.51H19.85a.51.51,0,0,1-.51-.51V39.54a.51.51,0,0,1,.51-.51h9.08a4,4,0,0,0,2.51-.88l4-3.22a2.07,2.07,0,0,1,1.26-.44h9.53a.51.51,0,0,1,.51.51Z"/><path class="cls-7" d="M43.64,48.27H39.87a1,1,0,0,0,0,2h3.77a1,1,0,0,0,0-2Z"/><path class="cls-7" d="M24.7,18.12H30a1,1,0,0,0,0-2H24.7a1,1,0,0,0,0,2Z"/><path class="cls-7" d="M19,23.79H35.64a1,1,0,0,0,0-2H19a1,1,0,0,0,0,2Z"/><path class="cls-7" d="M36.64,27.83a1,1,0,0,0-1-1H19a1,1,0,0,0,0,2H35.64A1,1,0,0,0,36.64,27.83Z"/></g></g></g></svg>