<svg xmlns="http://www.w3.org/2000/svg" viewBox="0 0 60 60"><defs><style>.cls-1{fill:none;}.cls-2{fill:#ffc670;}.cls-3{fill:#ffa742;}.cls-4{fill:#f6716f;}.cls-5{fill:#f0504d;}.cls-6{fill:#ffdead;}.cls-7{fill:#3d3d63;}</style></defs><title>Interaction</title><g id="图层_2" data-name="图层 2"><g id="Graphics"><g id="Interaction"><rect class="cls-1" width="60" height="60"/><path class="cls-2" d="M22.13,40.62a17.81,17.81,0,1,1,15.71,0"/><path class="cls-3" d="M24.18,37.54a13.17,13.17,0,1,1,11.61,0,1,1,0,0,1-.45.1"/><path class="cls-4" d="M24.8,34.9a11.78,11.78,0,1,1,10.38,0"/><path class="cls-5" d="M30,30.68a13.06,13.06,0,0,1-11.73-7.31c0,.32-.05.63-.05,1A11.77,11.77,0,0,0,24.8,34.9H35.18a11.79,11.79,0,0,0,6.6-10.58c0-.33,0-.64-.05-1A13.06,13.06,0,0,1,30,30.68Z"/><path class="cls-6" d="M21.51,52.56a1.24,1.24,0,0,0,1.08.62h21.7a1.24,1.24,0,0,0,1.25-1.25V44.14A2.59,2.59,0,0,0,43,41.55a2.6,2.6,0,0,0-2.59,2.59v-3a2.59,2.59,0,1,0-5.18,0V24.81A2.59,2.59,0,0,0,32,22.3a2.67,2.67,0,0,0-2,2.63v5a2.54,2.54,0,0,0-.77-1.84,2.57,2.57,0,0,0-2-.75,2.66,2.66,0,0,0-2.4,2.7v18l-1.7-3a2.66,2.66,0,0,0-3.33-1.18,2.56,2.56,0,0,0-1.17,3.61Z"/><path class="cls-7" d="M42.6,16.48a1,1,0,0,0,1-1v-1a16.77,16.77,0,0,1-1.71,21.76,1,1,0,1,0,1.42,1.41,18.78,18.78,0,0,0,1.49-24.9h1.55a1,1,0,0,0,0-2H42.6a1,1,0,0,0-1,1v3.75A1,1,0,0,0,42.6,16.48Z"/><path class="cls-7" d="M18.41,36.93V33.18a1,1,0,0,0-2,0v1a16.77,16.77,0,0,1,1.7-21.77,1,1,0,0,0,0-1.41,1,1,0,0,0-1.42,0A18.79,18.79,0,0,0,15.2,35.93H13.66a1,1,0,0,0,0,2h3.75A1,1,0,0,0,18.41,36.93Z"/><path class="cls-7" d="M43,40.5a3.54,3.54,0,0,0-1.59.37,3.6,3.6,0,0,0-3.59-3.47,3.54,3.54,0,0,0-1.59.37V35.51a12.78,12.78,0,1,0-12.37,0v8.85A3.67,3.67,0,0,0,19.37,43a3.55,3.55,0,0,0-1.62,5l2.89,5a2.27,2.27,0,0,0,1.95,1.13h21.7a2.25,2.25,0,0,0,2.25-2.25V44.09A3.59,3.59,0,0,0,43,40.5ZM19.22,24.33a10.78,10.78,0,1,1,17,8.83V24.44a3.59,3.59,0,1,0-7.18,0v1.94A3.55,3.55,0,0,0,27.4,26a3.59,3.59,0,0,0-3.59,3.59v3.55A10.69,10.69,0,0,1,19.22,24.33ZM44.54,51.94a.25.25,0,0,1-.25.25H22.59a.23.23,0,0,1-.21-.13l-2.9-5a1.52,1.52,0,0,1-.13-1.25,1.55,1.55,0,0,1,.84-.95,1.47,1.47,0,0,1,.58-.12,1.73,1.73,0,0,1,1.47.89l1.7,3a1,1,0,0,0,1.87-.5V29.6a1.6,1.6,0,0,1,3.19,0V45.3a1,1,0,1,0,2,0V24.44a1.59,1.59,0,1,1,3.18,0V41a1,1,0,0,0,2,0,1.59,1.59,0,1,1,3.18,0v3.1a1,1,0,0,0,2,0,1.59,1.59,0,1,1,3.18,0Z"/></g></g></g></svg>