<svg xmlns="http://www.w3.org/2000/svg" viewBox="0 0 60 60"><defs><style>.cls-1{fill:none;}.cls-2{fill:#3d3d63;}</style></defs><title>Interaction</title><g id="图层_2" data-name="图层 2"><g id="Icons"><g id="Interaction"><rect class="cls-1" width="60" height="60"/><path class="cls-2" d="M42.6,16.52a1,1,0,0,0,1-1v-1a16.77,16.77,0,0,1-1.71,21.76,1,1,0,0,0,0,1.42,1,1,0,0,0,1.42,0A18.79,18.79,0,0,0,44.8,12.77h1.55a1,1,0,0,0,0-2H42.6a1,1,0,0,0-1,1v3.75A1,1,0,0,0,42.6,16.52Z"/><path class="cls-2" d="M18.41,37V33.22a1,1,0,0,0-2,0v1a16.77,16.77,0,0,1,1.7-21.77,1,1,0,0,0-1.42-1.42A18.79,18.79,0,0,0,15.2,36H13.66a1,1,0,1,0,0,2h3.75A1,1,0,0,0,18.41,37Z"/><path class="cls-2" d="M43,40.54a3.55,3.55,0,0,0-1.59.38,3.6,3.6,0,0,0-3.59-3.48,3.54,3.54,0,0,0-1.59.37V35.55a12.78,12.78,0,1,0-12.37,0v8.84a3.67,3.67,0,0,0-4.44-1.33,3.56,3.56,0,0,0-1.62,5l2.89,5a2.25,2.25,0,0,0,1.95,1.13h21.7A2.25,2.25,0,0,0,46.54,52V44.13A3.59,3.59,0,0,0,43,40.54ZM19.22,24.37a10.78,10.78,0,1,1,17,8.83V24.48a3.59,3.59,0,1,0-7.18,0v1.94a3.55,3.55,0,0,0-1.6-.37,3.59,3.59,0,0,0-3.59,3.59v3.55A10.69,10.69,0,0,1,19.22,24.37ZM44.54,52a.25.25,0,0,1-.25.25H22.59a.23.23,0,0,1-.21-.13l-2.9-5a1.54,1.54,0,0,1-.13-1.26,1.51,1.51,0,0,1,.84-.94,1.47,1.47,0,0,1,.58-.12,1.73,1.73,0,0,1,1.47.89l1.7,2.94a1,1,0,0,0,1.87-.5V29.64a1.6,1.6,0,0,1,3.19,0V45.35a1,1,0,1,0,2,0V24.48a1.59,1.59,0,1,1,3.18,0V41a1,1,0,0,0,2,0,1.59,1.59,0,1,1,3.18,0v3.1a1,1,0,1,0,2,0,1.59,1.59,0,1,1,3.18,0Z"/></g></g></g></svg>