<svg xmlns="http://www.w3.org/2000/svg" viewBox="0 0 60 60"><defs><style>.cls-1{fill:none;}.cls-2{fill:#3d3d63;}</style></defs><title>Launch</title><g id="图层_2" data-name="图层 2"><g id="Icons"><g id="Launch"><rect class="cls-1" width="60" height="60"/><path class="cls-2" d="M41.4,21.59a3.81,3.81,0,1,0-3.81-3.81A3.82,3.82,0,0,0,41.4,21.59Zm0-5.62a1.81,1.81,0,1,1-1.81,1.81A1.81,1.81,0,0,1,41.4,16Z"/><path class="cls-2" d="M56,44.62H53.58V18.93a2.37,2.37,0,0,0-2.37-2.36H49.47a19.66,19.66,0,0,0,.42-4.68,2.75,2.75,0,0,0-2.61-2.61,20,20,0,0,0-15,6.19L28.06,14a1,1,0,0,0-1.13.37l-1.55,2.16H8.79a2.37,2.37,0,0,0-2.37,2.36V44.62H4a1,1,0,0,0-1,1v1.93a3.17,3.17,0,0,0,3.17,3.17H53.83A3.17,3.17,0,0,0,57,47.55V45.62A1,1,0,0,0,56,44.62Zm-4.79-26a.37.37,0,0,1,.37.36V44.62H49.47V22.36a1,1,0,0,0-1-1h-.66a19.86,19.86,0,0,0,1.13-2.79ZM32.15,44.62c0-.1,0-.19,0-.28a6.35,6.35,0,0,0-2.73-5.22l3.88-6.92c.24,0,.46.12.7.16a1,1,0,0,0,.55-.08l.5-.22-.22,5.29a1,1,0,0,0,.53.92,1,1,0,0,0,1-.06l8.34-6a1,1,0,0,0,.37-1.14l-1.43-4.19a20.14,20.14,0,0,0,3-3.56h.8V44.62Zm-19.62,0V29.41a3.93,3.93,0,0,1,2.93,3.79,4.45,4.45,0,0,1-.08.81,1,1,0,0,0,.43,1A2.52,2.52,0,0,1,17,37.17a2.48,2.48,0,0,1-.34,1.23c-.11.08-.22.14-.32.22A1,1,0,0,0,16.18,40a1,1,0,0,0,.77.36,1,1,0,0,0,.64-.24c.12-.09.24-.18.37-.26a2.46,2.46,0,0,1,2.92.38,6.3,6.3,0,0,0-.78,1.15,1,1,0,0,0,.43,1.35,1.07,1.07,0,0,0,.46.11,1,1,0,0,0,.89-.54,4.33,4.33,0,0,1,1-1.27h0a4.38,4.38,0,0,1,7.3,3.27c0,.09,0,.18,0,.28ZM20.8,23.36a.87.87,0,0,0,.11.44,1,1,0,0,0,.88.52h0l5.29-.21-.22.5a.94.94,0,0,0-.08.55,5.32,5.32,0,0,0,.16.69l-9.81,5.51a6,6,0,0,0-4.64-4v-4Zm5,14.59a6.41,6.41,0,0,0-3.39,1,4.51,4.51,0,0,0-3.45-1.35,2.88,2.88,0,0,0,0-.41,4.5,4.5,0,0,0-1.53-3.39c0-.09,0-.19,0-.28l10.19-5.73a7.58,7.58,0,0,0,.55.91l-4.43,3.1a1,1,0,0,0,.57,1.82,1,1,0,0,0,.58-.18l4.6-3.22a8.78,8.78,0,0,0,1.89,1.34l-3.75,6.69A6.41,6.41,0,0,0,25.78,38Zm16.29-9.62L43,31.06l-6.06,4.33.17-4.24,1-.43A20.34,20.34,0,0,0,42.07,28.33Zm5.16-17a.7.7,0,0,1,.66.67A17.93,17.93,0,0,1,37.24,28.89L34,30.33a6.58,6.58,0,0,1-5.18-5.18l1.43-3.21A18,18,0,0,1,47.23,11.28ZM28.12,16.17l2.73.94a20.34,20.34,0,0,0-2.39,4l-.43.95-4.24.17ZM8.42,18.93a.37.37,0,0,1,.37-.36H24l-2,2.79H11.53a1,1,0,0,0-1,1V44.62H8.42ZM5,47.55v-.93H20.79v1A3,3,0,0,0,21,48.72H6.17A1.17,1.17,0,0,1,5,47.55Zm18.87,1.17a1.08,1.08,0,0,1-1.08-1.08v-1H37.21v1a1.08,1.08,0,0,1-1.08,1.08ZM55,47.55a1.17,1.17,0,0,1-1.17,1.17H39a3,3,0,0,0,.21-1.08v-1H55Z"/><path class="cls-2" d="M28.06,34a1,1,0,0,0-1.41,0L25,35.53a1,1,0,0,0-.05,1.41,1,1,0,0,0,.73.32,1,1,0,0,0,.69-.28L28,35.39A1,1,0,0,0,28.06,34Z"/></g></g></g></svg>