<svg xmlns="http://www.w3.org/2000/svg" viewBox="0 0 60 60"><defs><style>.cls-1{fill:none;}.cls-2{fill:#96ddff;}.cls-3{fill:#69baf9;}.cls-4{fill:#79deb4;}.cls-5{fill:#edf4ff;}.cls-6{fill:#d8e3f0;}.cls-7{fill:#ffebcc;}.cls-8{fill:#ffdead;}.cls-9{fill:#3d3d63;}</style></defs><title>Pie Chart</title><g id="图层_2" data-name="图层 2"><g id="Graphics"><g id="Pie_Chart" data-name="Pie Chart"><rect class="cls-1" width="60" height="60"/><path class="cls-2" d="M28.36,31.41,19.71,50a20.47,20.47,0,0,1-1.59-36.28Z"/><path class="cls-3" d="M15.2,15.74,28.36,31.41h0L18.12,13.68A19.94,19.94,0,0,0,15.2,15.74Z"/><path class="cls-4" d="M28.36,6V31.41H53.77A25.41,25.41,0,0,0,28.36,6Z"/><path class="cls-5" d="M28.36,31.41,18.81,51.89A22.6,22.6,0,0,0,51,31.41Z"/><path class="cls-5" d="M28.36,8.82a22.51,22.51,0,0,0-11.3,3l11.3,19.56Z"/><path class="cls-6" d="M28.36,31.41l-.05.11,21.84,5.85a22.92,22.92,0,0,0,.8-6Z"/><path class="cls-6" d="M28.36,8.82a22,22,0,0,0-3.92.36l3.92,22.23Z"/><circle class="cls-5" cx="28.36" cy="31.41" r="7.06"/><path class="cls-6" d="M29.61,24.47a5.84,5.84,0,1,1-8.19,8.2,7.06,7.06,0,1,0,8.19-8.2Z"/><rect class="cls-7" x="6.23" y="31.41" width="21.66" height="15.15"/><path class="cls-8" d="M18.13,43c-3.42,1.27-8.13,1.14-11.9.72v2.8H27.89V31.41H25.83S24.75,40.58,18.13,43Z"/><path class="cls-9" d="M28.36,5a1,1,0,0,0-1,1V7.86A23.43,23.43,0,0,0,16.56,11a1,1,0,0,0-.36,1.36l.57,1A21.54,21.54,0,0,0,6.92,30.41H6.23a1,1,0,0,0-1,1V46.56a1,1,0,0,0,1,1h8a21.88,21.88,0,0,0,4.17,2.86l-.49,1a1,1,0,0,0,.48,1.33A23.61,23.61,0,0,0,51.92,32.41h1.85a1,1,0,0,0,1-1A26.44,26.44,0,0,0,28.36,5Zm-.47,25.41h-5.5a6.06,6.06,0,1,1,6.5,7v-6A1,1,0,0,0,27.89,30.41ZM27.36,9.85V23.42a7.68,7.68,0,0,0-2.14.57L18.44,12.24A21.44,21.44,0,0,1,27.36,9.85Zm-9.59,5.23L23.5,25a8,8,0,0,0-3.13,5.41H8.92A19.53,19.53,0,0,1,17.77,15.08ZM7.23,32.41H26.89V45.56H7.23ZM17.48,47.56h2.24l-.48,1A19.45,19.45,0,0,1,17.48,47.56ZM28.36,53a21.42,21.42,0,0,1-8.21-1.61l1.78-3.83h6a1,1,0,0,0,1-1V39.44a8.06,8.06,0,0,0,7.46-7H49.92A21.61,21.61,0,0,1,28.36,53ZM51,30.41H36.35a8.09,8.09,0,0,0-7-7V7A24.45,24.45,0,0,1,52.75,30.41Z"/><path class="cls-9" d="M10.14,37.92h6.2a1,1,0,1,0,0-2h-6.2a1,1,0,0,0,0,2Z"/><path class="cls-9" d="M21.29,40.05H10.14a1,1,0,0,0,0,2H21.29a1,1,0,0,0,0-2Z"/></g></g></g></svg>