<svg xmlns="http://www.w3.org/2000/svg" viewBox="0 0 60 60"><defs><style>.cls-1{fill:none;}.cls-2{fill:#3d3d63;}</style></defs><title>Pie Chart</title><g id="图层_2" data-name="图层 2"><g id="Icons"><g id="Pie_Chart" data-name="Pie Chart"><rect class="cls-1" width="60" height="60"/><path class="cls-2" d="M28.36,5a1,1,0,0,0-1,1V7.86A23.43,23.43,0,0,0,16.56,11a1,1,0,0,0-.36,1.36l.57,1A21.54,21.54,0,0,0,6.92,30.41H6.23a1,1,0,0,0-1,1V46.56a1,1,0,0,0,1,1h8a21.88,21.88,0,0,0,4.17,2.86l-.49,1a1,1,0,0,0,.48,1.33A23.61,23.61,0,0,0,51.92,32.41h1.85a1,1,0,0,0,1-1A26.44,26.44,0,0,0,28.36,5Zm-.47,25.41h-5.5a6.06,6.06,0,1,1,6.5,7v-6A1,1,0,0,0,27.89,30.41ZM27.36,9.85V23.42a7.68,7.68,0,0,0-2.14.57L18.44,12.24A21.44,21.44,0,0,1,27.36,9.85Zm-9.59,5.23L23.5,25a8,8,0,0,0-3.13,5.41H8.92A19.53,19.53,0,0,1,17.77,15.08ZM7.23,32.41H26.89V45.56H7.23ZM17.48,47.56h2.24l-.48,1A19.45,19.45,0,0,1,17.48,47.56ZM28.36,53a21.42,21.42,0,0,1-8.21-1.61l1.78-3.83h6a1,1,0,0,0,1-1V39.44a8.06,8.06,0,0,0,7.46-7H49.92A21.61,21.61,0,0,1,28.36,53ZM51,30.41H36.35a8.09,8.09,0,0,0-7-7V7A24.45,24.45,0,0,1,52.75,30.41Z"/><path class="cls-2" d="M10.14,37.92h6.2a1,1,0,1,0,0-2h-6.2a1,1,0,0,0,0,2Z"/><path class="cls-2" d="M21.29,40.05H10.14a1,1,0,0,0,0,2H21.29a1,1,0,0,0,0-2Z"/></g></g></g></svg>